<svg width="57" height="57" viewBox="0 0 57 57" fill="none" xmlns="http://www.w3.org/2000/svg">
<g id="mingcute:user-3-fill">
<g id="Group">
<path id="Vector" d="M28.5 30.8749C34.1905 30.8749 39.3656 32.5232 43.1727 34.8459C45.0727 36.0049 46.6973 37.3729 47.8705 38.8597C49.0248 40.3203 49.875 42.0683 49.875 43.9374C49.875 45.9443 48.8989 47.526 47.4929 48.6542C46.1629 49.7229 44.4078 50.4307 42.5434 50.9247C38.7956 51.915 33.7939 52.2499 28.5 52.2499C23.2061 52.2499 18.2044 51.9174 14.4566 50.9247C12.5922 50.4307 10.8371 49.7229 9.50712 48.6542C8.09875 47.5237 7.125 45.9443 7.125 43.9374C7.125 42.0683 7.97525 40.3203 9.1295 38.8573C10.3028 37.3729 11.9249 36.0073 13.8273 34.8435C17.6344 32.5255 22.8119 30.8749 28.5 30.8749ZM28.5 4.74991C31.6494 4.74991 34.6699 6.00102 36.8969 8.22802C39.1239 10.455 40.375 13.4755 40.375 16.6249C40.375 19.7744 39.1239 22.7948 36.8969 25.0218C34.6699 27.2488 31.6494 28.4999 28.5 28.4999C25.3506 28.4999 22.3301 27.2488 20.1031 25.0218C17.8761 22.7948 16.625 19.7744 16.625 16.6249C16.625 13.4755 17.8761 10.455 20.1031 8.22802C22.3301 6.00102 25.3506 4.74991 28.5 4.74991Z" fill="#9E5705"/>
</g>
<g id="Group_2">
<path id="Vector_2" d="M28.5 30.8749C34.1905 30.8749 39.3656 32.5232 43.1727 34.8459C45.0727 36.0049 46.6973 37.3729 47.8705 38.8597C49.0248 40.3203 49.875 42.0683 49.875 43.9374C49.875 45.9443 48.8989 47.526 47.4929 48.6542C46.1629 49.7229 44.4078 50.4307 42.5434 50.9247C38.7956 51.915 33.7939 52.2499 28.5 52.2499C23.2061 52.2499 18.2044 51.9174 14.4566 50.9247C12.5922 50.4307 10.8371 49.7229 9.50712 48.6542C8.09875 47.5237 7.125 45.9443 7.125 43.9374C7.125 42.0683 7.97525 40.3203 9.1295 38.8573C10.3028 37.3729 11.9249 36.0073 13.8273 34.8435C17.6344 32.5255 22.8119 30.8749 28.5 30.8749ZM28.5 4.74991C31.6494 4.74991 34.6699 6.00102 36.8969 8.22802C39.1239 10.455 40.375 13.4755 40.375 16.6249C40.375 19.7744 39.1239 22.7948 36.8969 25.0218C34.6699 27.2488 31.6494 28.4999 28.5 28.4999C25.3506 28.4999 22.3301 27.2488 20.1031 25.0218C17.8761 22.7948 16.625 19.7744 16.625 16.6249C16.625 13.4755 17.8761 10.455 20.1031 8.22802C22.3301 6.00102 25.3506 4.74991 28.5 4.74991Z" fill="#9E5705"/>
</g>
</g>
</svg>
