<svg width="72" height="66" viewBox="0 0 72 66" fill="none" xmlns="http://www.w3.org/2000/svg">
<g id="Group 22">
<path id="Polygon 5 (Stroke)" d="M24.4764 6.57659C29.521 -2.19219 42.1322 -2.19219 47.1768 6.57659L69.8777 46.0359C74.9223 54.8046 68.6167 65.7657 58.5274 65.7657H13.1257C3.03646 65.7657 -3.26913 54.8046 1.7755 46.0359L24.4764 6.57659ZM42.3124 9.39502C39.4298 4.38433 32.2234 4.38433 29.3407 9.39502L6.63988 48.8547C3.75733 53.8654 7.36047 60.1288 13.1257 60.1288H58.5274C64.2927 60.1288 67.8958 53.8654 65.0133 48.8547L42.3124 9.39502Z" fill="#9E5705"/>
<path id="Rectangle 72 (Stroke)" d="M24.7113 27.4238C22.4604 26.1243 19.5822 26.8955 18.2827 29.1464L11.6942 40.5584C10.3948 42.8092 11.166 45.6875 13.4167 46.9871L24.5756 53.4298C26.8264 54.7294 29.7049 53.9583 31.0045 51.7075L37.593 40.2955C38.8925 38.0446 38.121 35.1661 35.8701 33.8666L24.7113 27.4238ZM38.6939 28.9756C43.6458 31.8346 45.3425 38.167 42.4835 43.1191L35.895 54.5311C33.0359 59.4831 26.7039 61.1795 21.752 58.3205L10.5932 51.8777C5.6414 49.0187 3.94481 42.6868 6.80369 37.7348L13.3922 26.3228C16.2512 21.3708 22.5831 19.6738 27.535 22.5328L38.6939 28.9756Z" fill="#9E5705"/>
<path id="Ellipse 22 (Stroke)" d="M65.2213 51.5329C65.2213 46.8648 61.6249 43.0666 57.1452 42.949L56.9312 42.9461C52.3525 42.9461 48.6407 46.7906 48.6407 51.5329L48.6435 51.7546C48.7552 56.3208 52.3085 60.0012 56.7171 60.1169L56.9312 60.1193C61.4382 60.1193 65.1053 56.3944 65.2189 51.7546L65.2213 51.5329ZM70.6727 51.5329C70.6726 59.3934 64.5203 65.7655 56.9312 65.7656C49.3419 65.7656 43.1893 59.3934 43.1893 51.5329C43.1893 43.6724 49.3419 37.2998 56.9312 37.2998C64.5204 37.2999 70.6727 43.6724 70.6727 51.5329Z" fill="#9E5705"/>
<path id="Ellipse 32" d="M29.4472 35.3361C29.4472 38.5888 26.8105 41.2256 23.5579 41.2256C20.3054 41.2256 17.6686 38.5888 17.6686 35.3361C17.6686 32.0834 20.3054 29.4466 23.5579 29.4466C26.8105 29.4466 29.4472 32.0834 29.4472 35.3361Z" fill="#9E5705"/>
</g>
</svg>
