<svg width="379" height="35" viewBox="0 0 379 35" fill="none" xmlns="http://www.w3.org/2000/svg">
<path id="WORLD IS MINE" d="M14.256 34.704C13.264 34.704 12.464 34.464 11.856 33.984C11.248 33.504 10.752 32.768 10.368 31.776C10.368 31.776 10.24 31.392 9.98402 30.624C9.72802 29.856 9.36002 28.832 8.88002 27.552C8.43202 26.24 7.90402 24.768 7.29602 23.136C6.72002 21.504 6.12802 19.824 5.52002 18.096C4.91202 16.336 4.30402 14.656 3.69602 13.056C3.12002 11.424 2.59202 9.95201 2.11202 8.64001C1.66402 7.32801 1.31202 6.30401 1.05602 5.56801C0.800016 4.80001 0.672016 4.41601 0.672016 4.41601C0.224016 3.168 0.288016 2.144 0.864016 1.34401C1.44002 0.512005 2.44802 0.0960045 3.88802 0.0960045C4.91202 0.0960045 5.69602 0.336005 6.24002 0.816007C6.81602 1.26401 7.26402 1.98401 7.58402 2.976C7.58402 2.976 7.69602 3.31201 7.92002 3.98401C8.14402 4.65601 8.43202 5.56801 8.78402 6.72001C9.16802 7.84001 9.60002 9.10401 10.08 10.512C10.56 11.92 11.056 13.392 11.568 14.928C12.08 16.432 12.576 17.888 13.056 19.296C13.536 20.704 13.952 21.984 14.304 23.136C14.688 24.256 14.992 25.152 15.216 25.824C15.472 26.496 15.6 26.832 15.6 26.832C15.6 26.832 15.424 26.832 15.072 26.832C14.72 26.832 14.368 26.832 14.016 26.832C13.696 26.832 13.536 26.832 13.536 26.832C13.536 26.832 13.648 26.496 13.872 25.824C14.096 25.152 14.4 24.256 14.784 23.136C15.2 21.984 15.664 20.704 16.176 19.296C16.688 17.888 17.2 16.432 17.712 14.928C18.256 13.424 18.784 11.968 19.296 10.56C19.808 9.15201 20.256 7.88801 20.64 6.76801C21.056 5.61601 21.376 4.70401 21.6 4.03201C21.824 3.36001 21.936 3.02401 21.936 3.02401C22.32 2.00001 22.784 1.26401 23.328 0.816007C23.904 0.336005 24.64 0.0960045 25.536 0.0960045C26.432 0.0960045 27.152 0.336005 27.696 0.816007C28.24 1.29601 28.688 2.04801 29.04 3.07201C29.04 3.07201 29.152 3.40801 29.376 4.08C29.6 4.75201 29.904 5.64801 30.288 6.76801C30.672 7.88801 31.104 9.15201 31.584 10.56C32.064 11.968 32.544 13.424 33.024 14.928C33.536 16.432 34.032 17.888 34.512 19.296C35.024 20.704 35.456 21.984 35.808 23.136C36.192 24.256 36.496 25.152 36.72 25.824C36.976 26.496 37.104 26.832 37.104 26.832C37.104 26.832 36.944 26.832 36.624 26.832C36.336 26.832 36.032 26.832 35.712 26.832C35.424 26.832 35.28 26.832 35.28 26.832C35.28 26.832 35.392 26.496 35.616 25.824C35.872 25.152 36.192 24.256 36.576 23.136C36.96 21.984 37.392 20.704 37.872 19.296C38.352 17.888 38.848 16.432 39.36 14.928C39.904 13.392 40.416 11.92 40.896 10.512C41.376 9.10401 41.808 7.84001 42.192 6.72001C42.576 5.56801 42.88 4.65601 43.104 3.98401C43.36 3.31201 43.488 2.976 43.488 2.976C43.808 1.98401 44.24 1.26401 44.784 0.816007C45.328 0.336005 46.096 0.0960045 47.088 0.0960045C48.336 0.0960045 49.232 0.512005 49.776 1.34401C50.352 2.144 50.416 3.168 49.968 4.41601C49.968 4.41601 49.824 4.80001 49.536 5.56801C49.28 6.33601 48.912 7.37601 48.432 8.68801C47.984 10 47.456 11.472 46.848 13.104C46.272 14.704 45.68 16.384 45.072 18.144C44.464 19.872 43.856 21.552 43.248 23.184C42.672 24.784 42.144 26.24 41.664 27.552C41.216 28.832 40.848 29.872 40.56 30.672C40.304 31.44 40.176 31.824 40.176 31.824C39.824 32.816 39.344 33.552 38.736 34.032C38.16 34.48 37.36 34.704 36.336 34.704C35.312 34.704 34.496 34.464 33.888 33.984C33.28 33.504 32.8 32.768 32.448 31.776C32.448 31.776 32.336 31.472 32.112 30.864C31.888 30.256 31.584 29.44 31.2 28.416C30.848 27.36 30.448 26.192 30 24.912C29.552 23.632 29.088 22.304 28.608 20.928C28.128 19.52 27.648 18.176 27.168 16.896C26.72 15.616 26.32 14.464 25.968 13.44C25.616 12.416 25.328 11.6 25.104 10.992C24.88 10.352 24.768 10.032 24.768 10.032C24.768 10.032 24.96 10.032 25.344 10.032C25.728 10.032 25.92 10.032 25.92 10.032C25.92 10.032 25.808 10.336 25.584 10.944C25.36 11.552 25.056 12.384 24.672 13.44C24.32 14.464 23.904 15.632 23.424 16.944C22.976 18.224 22.496 19.552 21.984 20.928C21.504 22.304 21.04 23.648 20.592 24.96C20.144 26.24 19.728 27.408 19.344 28.464C18.96 29.488 18.656 30.304 18.432 30.912C18.24 31.52 18.144 31.824 18.144 31.824C17.792 32.816 17.312 33.552 16.704 34.032C16.096 34.48 15.28 34.704 14.256 34.704ZM71.2856 34.8C67.9256 34.8 64.9976 34.08 62.5016 32.64C60.0056 31.2 58.0696 29.168 56.6936 26.544C55.3176 23.92 54.6296 20.864 54.6296 17.376C54.6296 13.856 55.3176 10.8 56.6936 8.20801C58.0696 5.58401 60.0056 3.56801 62.5016 2.16001C64.9976 0.720006 67.9256 5.72205e-06 71.2856 5.72205e-06C74.6136 5.72205e-06 77.5256 0.720006 80.0216 2.16001C82.5176 3.56801 84.4536 5.58401 85.8296 8.20801C87.2376 10.8 87.9416 13.856 87.9416 17.376C87.9416 20.864 87.2376 23.92 85.8296 26.544C84.4536 29.168 82.5176 31.2 80.0216 32.64C77.5256 34.08 74.6136 34.8 71.2856 34.8ZM71.2856 28.608C74.1336 28.608 76.3416 27.632 77.9096 25.68C79.5096 23.696 80.3096 20.928 80.3096 17.376C80.3096 13.824 79.5096 11.072 77.9096 9.12001C76.3416 7.16801 74.1336 6.19201 71.2856 6.19201C68.4376 6.19201 66.2136 7.16801 64.6136 9.12001C63.0456 11.072 62.2616 13.824 62.2616 17.376C62.2616 20.896 63.0456 23.648 64.6136 25.632C66.2136 27.616 68.4376 28.608 71.2856 28.608ZM97.3939 34.704C96.2419 34.704 95.3459 34.384 94.7059 33.744C94.0659 33.104 93.7459 32.192 93.7459 31.008C93.7459 31.008 93.7459 30.64 93.7459 29.904C93.7459 29.136 93.7459 28.128 93.7459 26.88C93.7459 25.6 93.7459 24.16 93.7459 22.56C93.7459 20.96 93.7459 19.312 93.7459 17.616C93.7459 15.888 93.7459 14.24 93.7459 12.672C93.7459 11.072 93.7459 9.63201 93.7459 8.35201C93.7459 7.07201 93.7459 6.06401 93.7459 5.32801C93.7459 4.56001 93.7459 4.17601 93.7459 4.17601C93.7459 2.99201 94.0659 2.08001 94.7059 1.44C95.3459 0.800005 96.2579 0.480005 97.4419 0.480005C97.4419 0.480005 97.8259 0.480005 98.5939 0.480005C99.3939 0.480005 100.37 0.480005 101.522 0.480005C102.706 0.480005 103.874 0.480005 105.026 0.480005C106.178 0.480005 107.154 0.480005 107.954 0.480005C108.754 0.480005 109.154 0.480005 109.154 0.480005C112.93 0.480005 115.842 1.39201 117.89 3.21601C119.938 5.04001 120.962 7.58401 120.962 10.848C120.962 14.048 119.922 16.56 117.842 18.384C115.794 20.176 112.898 21.072 109.154 21.072C109.154 21.072 109.218 20.944 109.346 20.688C109.474 20.4 109.538 20.256 109.538 20.256C109.538 20.256 109.698 20.256 110.018 20.256C110.338 20.256 110.642 20.256 110.93 20.256C111.25 20.256 111.41 20.256 111.41 20.256C112.754 20.256 113.938 20.592 114.962 21.264C115.986 21.936 116.85 22.944 117.554 24.288C117.554 24.288 117.65 24.48 117.842 24.864C118.066 25.216 118.338 25.68 118.658 26.256C118.978 26.8 119.282 27.36 119.57 27.936C119.89 28.48 120.146 28.944 120.338 29.328C120.562 29.712 120.674 29.904 120.674 29.904C121.09 30.672 121.282 31.44 121.25 32.208C121.218 32.944 120.93 33.552 120.386 34.032C119.874 34.48 119.106 34.704 118.082 34.704C117.026 34.704 116.162 34.496 115.49 34.08C114.85 33.632 114.29 32.96 113.81 32.064C113.81 32.064 113.65 31.776 113.33 31.2C113.01 30.624 112.61 29.92 112.13 29.088C111.682 28.224 111.218 27.376 110.738 26.544C110.29 25.712 109.906 25.008 109.586 24.432C109.298 23.856 109.154 23.568 109.154 23.568C108.674 22.64 108.082 22.016 107.378 21.696C106.674 21.344 105.81 21.168 104.786 21.168C104.786 21.168 104.658 21.168 104.402 21.168C104.146 21.168 103.842 21.168 103.49 21.168C103.138 21.168 102.77 21.168 102.386 21.168C102.034 21.168 101.73 21.168 101.474 21.168C101.218 21.168 101.09 21.168 101.09 21.168C101.09 21.168 101.09 21.408 101.09 21.888C101.09 22.368 101.09 22.976 101.09 23.712C101.09 24.448 101.09 25.248 101.09 26.112C101.09 26.944 101.09 27.728 101.09 28.464C101.09 29.2 101.09 29.808 101.09 30.288C101.09 30.768 101.09 31.008 101.09 31.008C101.09 33.472 99.8579 34.704 97.3939 34.704ZM101.09 15.888C101.09 15.888 101.314 15.888 101.762 15.888C102.21 15.888 102.77 15.888 103.442 15.888C104.146 15.888 104.834 15.888 105.506 15.888C106.178 15.888 106.738 15.888 107.186 15.888C107.634 15.888 107.858 15.888 107.858 15.888C109.842 15.888 111.346 15.488 112.37 14.688C113.426 13.856 113.954 12.624 113.954 10.992C113.954 9.39201 113.426 8.19201 112.37 7.392C111.346 6.59201 109.842 6.19201 107.858 6.19201C107.858 6.19201 107.634 6.19201 107.186 6.19201C106.738 6.19201 106.178 6.19201 105.506 6.19201C104.834 6.19201 104.146 6.19201 103.442 6.19201C102.77 6.19201 102.21 6.19201 101.762 6.19201C101.314 6.19201 101.09 6.19201 101.09 6.19201C101.09 6.19201 101.09 6.43201 101.09 6.91201C101.09 7.36001 101.09 7.95201 101.09 8.68801C101.09 9.42401 101.09 10.208 101.09 11.04C101.09 11.872 101.09 12.656 101.09 13.392C101.09 14.128 101.09 14.736 101.09 15.216C101.09 15.664 101.09 15.888 101.09 15.888ZM130.817 34.32C129.633 34.32 128.721 34 128.081 33.36C127.441 32.688 127.121 31.776 127.121 30.624C127.121 30.624 127.121 30.256 127.121 29.52C127.121 28.752 127.121 27.744 127.121 26.496C127.121 25.216 127.121 23.792 127.121 22.224C127.121 20.656 127.121 19.04 127.121 17.376C127.121 15.68 127.121 14.048 127.121 12.48C127.121 10.88 127.121 9.45601 127.121 8.20801C127.121 6.96001 127.121 5.96801 127.121 5.23201C127.121 4.46401 127.121 4.08 127.121 4.08C127.121 2.896 127.441 1.984 128.081 1.34401C128.721 0.704006 129.633 0.384007 130.817 0.384007C131.969 0.384007 132.865 0.704006 133.505 1.34401C134.145 1.984 134.465 2.896 134.465 4.08C134.465 4.08 134.465 4.512 134.465 5.37601C134.465 6.24001 134.465 7.39201 134.465 8.83201C134.465 10.272 134.465 11.856 134.465 13.584C134.465 15.28 134.465 16.992 134.465 18.72C134.465 20.416 134.465 21.984 134.465 23.424C134.465 24.864 134.465 26.016 134.465 26.88C134.465 27.744 134.465 28.176 134.465 28.176C134.465 28.176 134.769 28.176 135.377 28.176C136.017 28.176 136.817 28.176 137.777 28.176C138.769 28.176 139.809 28.176 140.897 28.176C142.017 28.176 143.057 28.176 144.017 28.176C145.009 28.176 145.809 28.176 146.417 28.176C147.057 28.176 147.377 28.176 147.377 28.176C148.401 28.176 149.185 28.448 149.729 28.992C150.305 29.504 150.593 30.256 150.593 31.248C150.593 32.24 150.305 33.008 149.729 33.552C149.185 34.064 148.401 34.32 147.377 34.32C147.377 34.32 146.977 34.32 146.177 34.32C145.409 34.32 144.385 34.32 143.105 34.32C141.857 34.32 140.529 34.32 139.121 34.32C137.713 34.32 136.369 34.32 135.089 34.32C133.841 34.32 132.817 34.32 132.017 34.32C131.217 34.32 130.817 34.32 130.817 34.32ZM158.43 34.32C157.214 34.32 156.27 34 155.598 33.36C154.926 32.688 154.59 31.728 154.59 30.48C154.59 30.48 154.59 30.016 154.59 29.088C154.59 28.128 154.59 26.88 154.59 25.344C154.59 23.776 154.59 22.064 154.59 20.208C154.59 18.32 154.59 16.448 154.59 14.592C154.59 12.736 154.59 11.04 154.59 9.50401C154.59 7.93601 154.59 6.68801 154.59 5.76001C154.59 4.80001 154.59 4.32001 154.59 4.32001C154.59 3.07201 154.926 2.12801 155.598 1.48801C156.27 0.816006 157.214 0.480005 158.43 0.480005C158.43 0.480005 158.75 0.480005 159.39 0.480005C160.03 0.480005 160.814 0.480005 161.742 0.480005C162.67 0.480005 163.598 0.480005 164.526 0.480005C165.454 0.480005 166.238 0.480005 166.878 0.480005C167.518 0.480005 167.838 0.480005 167.838 0.480005C173.598 0.480005 178.046 1.95201 181.182 4.89601C184.318 7.84001 185.886 12 185.886 17.376C185.886 22.784 184.318 26.96 181.182 29.904C178.046 32.848 173.598 34.32 167.838 34.32C167.838 34.32 167.518 34.32 166.878 34.32C166.238 34.32 165.454 34.32 164.526 34.32C163.598 34.32 162.67 34.32 161.742 34.32C160.814 34.32 160.03 34.32 159.39 34.32C158.75 34.32 158.43 34.32 158.43 34.32ZM161.934 28.32C161.934 28.32 162.11 28.32 162.462 28.32C162.814 28.32 163.262 28.32 163.806 28.32C164.35 28.32 164.894 28.32 165.438 28.32C165.982 28.32 166.43 28.32 166.782 28.32C167.134 28.32 167.31 28.32 167.31 28.32C171.022 28.32 173.774 27.424 175.566 25.632C177.358 23.808 178.254 21.056 178.254 17.376C178.254 13.696 177.342 10.96 175.518 9.168C173.726 7.37601 170.99 6.48001 167.31 6.48001C167.31 6.48001 167.134 6.48001 166.782 6.48001C166.43 6.48001 165.982 6.48001 165.438 6.48001C164.894 6.48001 164.35 6.48001 163.806 6.48001C163.262 6.48001 162.814 6.48001 162.462 6.48001C162.11 6.48001 161.934 6.48001 161.934 6.48001C161.934 6.48001 161.934 6.88001 161.934 7.68001C161.934 8.44801 161.934 9.48801 161.934 10.8C161.934 12.112 161.934 13.552 161.934 15.12C161.934 16.656 161.934 18.192 161.934 19.728C161.934 21.264 161.934 22.688 161.934 24C161.934 25.312 161.934 26.368 161.934 27.168C161.934 27.936 161.934 28.32 161.934 28.32ZM208.675 34.704C207.523 34.704 206.627 34.384 205.987 33.744C205.347 33.104 205.027 32.176 205.027 30.96C205.027 30.96 205.027 30.576 205.027 29.808C205.027 29.04 205.027 28.016 205.027 26.736C205.027 25.456 205.027 24.016 205.027 22.416C205.027 20.784 205.027 19.12 205.027 17.424C205.027 15.696 205.027 14.032 205.027 12.432C205.027 10.8 205.027 9.34401 205.027 8.064C205.027 6.78401 205.027 5.76001 205.027 4.99201C205.027 4.22401 205.027 3.84 205.027 3.84C205.027 2.62401 205.347 1.69601 205.987 1.05601C206.627 0.416005 207.539 0.0960045 208.723 0.0960045C209.875 0.0960045 210.771 0.416005 211.411 1.05601C212.051 1.69601 212.371 2.62401 212.371 3.84C212.371 3.84 212.371 4.22401 212.371 4.99201C212.371 5.76001 212.371 6.78401 212.371 8.064C212.371 9.34401 212.371 10.8 212.371 12.432C212.371 14.032 212.371 15.696 212.371 17.424C212.371 19.12 212.371 20.784 212.371 22.416C212.371 24.016 212.371 25.456 212.371 26.736C212.371 28.016 212.371 29.04 212.371 29.808C212.371 30.576 212.371 30.96 212.371 30.96C212.371 33.456 211.139 34.704 208.675 34.704ZM231.231 34.8C229.183 34.8 227.135 34.576 225.087 34.128C223.039 33.648 221.279 33.008 219.807 32.208C219.071 31.856 218.559 31.376 218.271 30.768C217.983 30.16 217.887 29.552 217.983 28.944C218.079 28.304 218.319 27.744 218.703 27.264C219.087 26.752 219.583 26.416 220.191 26.256C220.831 26.096 221.535 26.192 222.303 26.544C223.583 27.28 225.007 27.84 226.575 28.224C228.143 28.576 229.695 28.752 231.231 28.752C233.599 28.752 235.295 28.4 236.319 27.696C237.343 26.96 237.855 26.032 237.855 24.912C237.855 23.952 237.487 23.2 236.751 22.656C236.015 22.08 234.767 21.6 233.007 21.216C233.007 21.216 232.735 21.168 232.191 21.072C231.647 20.944 231.007 20.816 230.271 20.688C229.567 20.528 228.943 20.384 228.399 20.256C227.855 20.128 227.583 20.064 227.583 20.064C224.543 19.456 222.271 18.368 220.767 16.8C219.263 15.232 218.511 13.2 218.511 10.704C218.511 8.52801 219.087 6.64001 220.239 5.04001C221.391 3.44001 222.991 2.20801 225.039 1.34401C227.119 0.448006 229.503 5.72205e-06 232.191 5.72205e-06C233.951 5.72205e-06 235.679 0.208006 237.375 0.624006C239.103 1.04001 240.623 1.68001 241.935 2.544C242.735 2.99201 243.231 3.60001 243.423 4.36801C243.647 5.10401 243.615 5.82401 243.327 6.528C243.071 7.23201 242.591 7.74401 241.887 8.064C241.215 8.35201 240.351 8.27201 239.295 7.82401C238.239 7.21601 237.103 6.76801 235.887 6.48001C234.671 6.19201 233.423 6.04801 232.143 6.04801C230.127 6.04801 228.543 6.44801 227.391 7.24801C226.271 8.01601 225.711 9.05601 225.711 10.368C225.711 11.328 226.047 12.112 226.719 12.72C227.423 13.296 228.623 13.76 230.319 14.112C230.319 14.112 230.591 14.176 231.135 14.304C231.679 14.4 232.303 14.528 233.007 14.688C233.711 14.816 234.335 14.944 234.879 15.072C235.423 15.2 235.695 15.264 235.695 15.264C238.831 15.936 241.167 17.008 242.703 18.48C244.271 19.952 245.055 21.904 245.055 24.336C245.055 26.416 244.479 28.256 243.327 29.856C242.207 31.424 240.607 32.64 238.527 33.504C236.479 34.368 234.047 34.8 231.231 34.8ZM266.607 34.704C265.551 34.704 264.735 34.416 264.159 33.84C263.583 33.232 263.295 32.4 263.295 31.344C263.295 31.344 263.295 30.96 263.295 30.192C263.295 29.392 263.295 28.336 263.295 27.024C263.295 25.68 263.295 24.176 263.295 22.512C263.295 20.848 263.295 19.152 263.295 17.424C263.295 15.664 263.295 13.952 263.295 12.288C263.295 10.624 263.295 9.13601 263.295 7.82401C263.295 6.48001 263.295 5.42401 263.295 4.65601C263.295 3.85601 263.295 3.45601 263.295 3.45601C263.295 2.36801 263.599 1.53601 264.207 0.960005C264.815 0.384005 265.679 0.0960045 266.799 0.0960045C267.727 0.0960045 268.463 0.272005 269.007 0.624006C269.551 0.976006 270.047 1.56801 270.495 2.40001C270.495 2.40001 270.687 2.78401 271.071 3.55201C271.487 4.28801 272.031 5.26401 272.703 6.48001C273.375 7.696 274.111 9.02401 274.911 10.464C275.711 11.904 276.495 13.36 277.263 14.832C278.063 16.272 278.799 17.6 279.471 18.816C280.143 20.032 280.687 21.008 281.103 21.744C281.519 22.48 281.727 22.848 281.727 22.848C281.727 22.848 281.583 22.848 281.295 22.848C281.039 22.848 280.767 22.848 280.479 22.848C280.223 22.848 280.095 22.848 280.095 22.848C280.095 22.848 280.287 22.48 280.671 21.744C281.087 21.008 281.631 20.032 282.303 18.816C282.975 17.6 283.695 16.272 284.463 14.832C285.263 13.36 286.063 11.904 286.863 10.464C287.663 9.02401 288.383 7.696 289.023 6.48001C289.695 5.26401 290.223 4.28801 290.607 3.55201C291.023 2.78401 291.231 2.40001 291.231 2.40001C291.679 1.56801 292.175 0.976006 292.719 0.624006C293.295 0.272005 294.047 0.0960045 294.975 0.0960045C296.031 0.0960045 296.847 0.384005 297.423 0.960005C297.999 1.53601 298.287 2.36801 298.287 3.45601C298.287 3.45601 298.287 3.85601 298.287 4.65601C298.287 5.42401 298.287 6.48001 298.287 7.82401C298.287 9.13601 298.287 10.624 298.287 12.288C298.287 13.952 298.287 15.664 298.287 17.424C298.287 19.152 298.287 20.848 298.287 22.512C298.287 24.176 298.287 25.68 298.287 27.024C298.287 28.336 298.287 29.392 298.287 30.192C298.287 30.96 298.287 31.344 298.287 31.344C298.287 33.584 297.183 34.704 294.975 34.704C292.767 34.704 291.663 33.584 291.663 31.344C291.663 31.344 291.663 30.992 291.663 30.288C291.663 29.584 291.663 28.64 291.663 27.456C291.663 26.272 291.663 24.976 291.663 23.568C291.663 22.16 291.663 20.768 291.663 19.392C291.663 17.984 291.663 16.688 291.663 15.504C291.663 14.32 291.663 13.376 291.663 12.672C291.663 11.968 291.663 11.616 291.663 11.616C291.663 11.616 291.839 11.616 292.191 11.616C292.543 11.616 292.719 11.616 292.719 11.616C292.719 11.616 292.543 11.904 292.191 12.48C291.871 13.056 291.439 13.84 290.895 14.832C290.383 15.792 289.807 16.848 289.167 18C288.527 19.152 287.887 20.32 287.247 21.504C286.607 22.656 286.015 23.712 285.471 24.672C284.927 25.632 284.479 26.4 284.127 26.976C283.807 27.552 283.647 27.84 283.647 27.84C283.295 28.448 282.911 28.912 282.495 29.232C282.079 29.52 281.519 29.664 280.815 29.664C280.111 29.664 279.535 29.52 279.087 29.232C278.671 28.912 278.287 28.448 277.935 27.84C277.935 27.84 277.759 27.552 277.407 26.976C277.087 26.4 276.655 25.616 276.111 24.624C275.567 23.632 274.975 22.56 274.335 21.408C273.695 20.256 273.039 19.12 272.367 18C271.727 16.848 271.135 15.776 270.591 14.784C270.079 13.792 269.647 13.008 269.295 12.432C268.975 11.856 268.815 11.568 268.815 11.568C268.815 11.568 268.991 11.568 269.343 11.568C269.727 11.568 269.919 11.568 269.919 11.568C269.919 11.568 269.919 11.92 269.919 12.624C269.919 13.328 269.919 14.272 269.919 15.456C269.919 16.64 269.919 17.936 269.919 19.344C269.919 20.752 269.919 22.16 269.919 23.568C269.919 24.976 269.919 26.272 269.919 27.456C269.919 28.64 269.919 29.584 269.919 30.288C269.919 30.992 269.919 31.344 269.919 31.344C269.919 33.584 268.815 34.704 266.607 34.704ZM308.847 34.704C307.695 34.704 306.799 34.384 306.159 33.744C305.519 33.104 305.199 32.176 305.199 30.96C305.199 30.96 305.199 30.576 305.199 29.808C305.199 29.04 305.199 28.016 305.199 26.736C305.199 25.456 305.199 24.016 305.199 22.416C305.199 20.784 305.199 19.12 305.199 17.424C305.199 15.696 305.199 14.032 305.199 12.432C305.199 10.8 305.199 9.34401 305.199 8.064C305.199 6.78401 305.199 5.76001 305.199 4.99201C305.199 4.22401 305.199 3.84 305.199 3.84C305.199 2.62401 305.519 1.69601 306.159 1.05601C306.799 0.416005 307.711 0.0960045 308.895 0.0960045C310.047 0.0960045 310.943 0.416005 311.583 1.05601C312.223 1.69601 312.543 2.62401 312.543 3.84C312.543 3.84 312.543 4.22401 312.543 4.99201C312.543 5.76001 312.543 6.78401 312.543 8.064C312.543 9.34401 312.543 10.8 312.543 12.432C312.543 14.032 312.543 15.696 312.543 17.424C312.543 19.12 312.543 20.784 312.543 22.416C312.543 24.016 312.543 25.456 312.543 26.736C312.543 28.016 312.543 29.04 312.543 29.808C312.543 30.576 312.543 30.96 312.543 30.96C312.543 33.456 311.311 34.704 308.847 34.704ZM322.811 34.704C320.507 34.704 319.355 33.552 319.355 31.248C319.355 31.248 319.355 30.864 319.355 30.096C319.355 29.296 319.355 28.24 319.355 26.928C319.355 25.616 319.355 24.16 319.355 22.56C319.355 20.928 319.355 19.248 319.355 17.52C319.355 15.76 319.355 14.064 319.355 12.432C319.355 10.8 319.355 9.32801 319.355 8.01601C319.355 6.70401 319.355 5.66401 319.355 4.89601C319.355 4.12801 319.355 3.74401 319.355 3.74401C319.355 2.56001 319.643 1.66401 320.219 1.05601C320.827 0.416005 321.595 0.0960045 322.523 0.0960045C323.387 0.0960045 324.059 0.256005 324.539 0.576007C325.019 0.896007 325.563 1.42401 326.171 2.16001C326.171 2.16001 326.411 2.46401 326.891 3.07201C327.371 3.68001 328.011 4.51201 328.811 5.56801C329.611 6.59201 330.507 7.76001 331.499 9.07201C332.523 10.352 333.563 11.68 334.619 13.056C335.707 14.432 336.747 15.76 337.739 17.04C338.763 18.32 339.675 19.488 340.475 20.544C341.275 21.568 341.915 22.384 342.395 22.992C342.875 23.6 343.115 23.904 343.115 23.904C343.115 23.904 343.003 23.904 342.779 23.904C342.587 23.904 342.379 23.904 342.155 23.904C341.931 23.904 341.819 23.904 341.819 23.904C341.819 23.904 341.819 23.536 341.819 22.8C341.819 22.064 341.819 21.104 341.819 19.92C341.819 18.704 341.819 17.376 341.819 15.936C341.819 14.464 341.819 13.008 341.819 11.568C341.819 10.096 341.819 8.76801 341.819 7.58401C341.819 6.36801 341.819 5.39201 341.819 4.65601C341.819 3.92001 341.819 3.55201 341.819 3.55201C341.819 2.432 342.107 1.58401 342.683 1.00801C343.291 0.400005 344.139 0.0960045 345.227 0.0960045C346.315 0.0960045 347.147 0.400005 347.723 1.00801C348.299 1.58401 348.587 2.432 348.587 3.55201C348.587 3.55201 348.587 3.95201 348.587 4.752C348.587 5.52001 348.587 6.57601 348.587 7.92001C348.587 9.23201 348.587 10.704 348.587 12.336C348.587 13.968 348.587 15.68 348.587 17.472C348.587 19.232 348.587 20.928 348.587 22.56C348.587 24.192 348.587 25.68 348.587 27.024C348.587 28.336 348.587 29.392 348.587 30.192C348.587 30.992 348.587 31.392 348.587 31.392C348.587 32.416 348.315 33.232 347.771 33.84C347.259 34.416 346.555 34.704 345.659 34.704C344.763 34.704 344.059 34.544 343.547 34.224C343.035 33.904 342.475 33.376 341.867 32.64C341.867 32.64 341.627 32.336 341.147 31.728C340.667 31.12 340.027 30.288 339.227 29.232C338.427 28.176 337.515 27.008 336.491 25.728C335.499 24.448 334.459 23.12 333.371 21.744C332.283 20.368 331.227 19.04 330.203 17.76C329.211 16.448 328.315 15.28 327.515 14.256C326.747 13.2 326.123 12.368 325.643 11.76C325.163 11.152 324.923 10.848 324.923 10.848C324.923 10.848 325.019 10.848 325.211 10.848C325.435 10.848 325.643 10.848 325.835 10.848C326.059 10.848 326.171 10.848 326.171 10.848C326.171 10.848 326.171 11.216 326.171 11.952C326.171 12.688 326.171 13.664 326.171 14.88C326.171 16.064 326.171 17.392 326.171 18.864C326.171 20.336 326.171 21.792 326.171 23.232C326.171 24.672 326.171 26 326.171 27.216C326.171 28.432 326.171 29.408 326.171 30.144C326.171 30.88 326.171 31.248 326.171 31.248C326.171 33.552 325.051 34.704 322.811 34.704ZM359.289 34.32C358.073 34.32 357.129 34 356.457 33.36C355.785 32.688 355.449 31.728 355.449 30.48C355.449 30.48 355.449 30.016 355.449 29.088C355.449 28.128 355.449 26.88 355.449 25.344C355.449 23.776 355.449 22.064 355.449 20.208C355.449 18.32 355.449 16.448 355.449 14.592C355.449 12.736 355.449 11.04 355.449 9.50401C355.449 7.93601 355.449 6.68801 355.449 5.76001C355.449 4.80001 355.449 4.32001 355.449 4.32001C355.449 3.07201 355.785 2.12801 356.457 1.48801C357.129 0.816006 358.073 0.480005 359.289 0.480005C359.289 0.480005 359.689 0.480005 360.489 0.480005C361.289 0.480005 362.329 0.480005 363.609 0.480005C364.889 0.480005 366.233 0.480005 367.641 0.480005C369.081 0.480005 370.441 0.480005 371.721 0.480005C373.001 0.480005 374.041 0.480005 374.841 0.480005C375.641 0.480005 376.041 0.480005 376.041 0.480005C377.993 0.480005 378.969 1.42401 378.969 3.31201C378.969 5.23201 377.993 6.19201 376.041 6.19201C376.041 6.19201 375.721 6.19201 375.081 6.19201C374.441 6.19201 373.593 6.19201 372.537 6.19201C371.513 6.19201 370.425 6.19201 369.273 6.19201C368.121 6.19201 367.017 6.19201 365.961 6.19201C364.937 6.19201 364.105 6.19201 363.465 6.19201C362.825 6.19201 362.505 6.19201 362.505 6.19201C362.505 6.19201 362.505 6.40001 362.505 6.81601C362.505 7.20001 362.505 7.696 362.505 8.304C362.505 8.91201 362.505 9.56801 362.505 10.272C362.505 10.944 362.505 11.584 362.505 12.192C362.505 12.8 362.505 13.296 362.505 13.68C362.505 14.064 362.505 14.256 362.505 14.256C362.505 14.256 362.793 14.256 363.369 14.256C363.977 14.256 364.761 14.256 365.721 14.256C366.681 14.256 367.689 14.256 368.745 14.256C369.833 14.256 370.841 14.256 371.769 14.256C372.729 14.256 373.513 14.256 374.121 14.256C374.729 14.256 375.033 14.256 375.033 14.256C376.985 14.256 377.961 15.216 377.961 17.136C377.961 19.056 376.985 20.016 375.033 20.016C375.033 20.016 374.729 20.016 374.121 20.016C373.513 20.016 372.729 20.016 371.769 20.016C370.841 20.016 369.833 20.016 368.745 20.016C367.689 20.016 366.681 20.016 365.721 20.016C364.761 20.016 363.977 20.016 363.369 20.016C362.793 20.016 362.505 20.016 362.505 20.016C362.505 20.016 362.505 20.224 362.505 20.64C362.505 21.056 362.505 21.584 362.505 22.224C362.505 22.864 362.505 23.552 362.505 24.288C362.505 25.024 362.505 25.728 362.505 26.4C362.505 27.04 362.505 27.568 362.505 27.984C362.505 28.4 362.505 28.608 362.505 28.608C362.505 28.608 362.825 28.608 363.465 28.608C364.105 28.608 364.937 28.608 365.961 28.608C367.017 28.608 368.121 28.608 369.273 28.608C370.425 28.608 371.513 28.608 372.537 28.608C373.593 28.608 374.441 28.608 375.081 28.608C375.721 28.608 376.041 28.608 376.041 28.608C377.993 28.608 378.969 29.552 378.969 31.44C378.969 33.36 377.993 34.32 376.041 34.32C376.041 34.32 375.641 34.32 374.841 34.32C374.041 34.32 373.001 34.32 371.721 34.32C370.441 34.32 369.081 34.32 367.641 34.32C366.233 34.32 364.889 34.32 363.609 34.32C362.329 34.32 361.289 34.32 360.489 34.32C359.689 34.32 359.289 34.32 359.289 34.32Z" fill="#9E5705"/>
</svg>
